HIERARCHY
ROOT Hips
{
  OFFSET -4.35178 90.3298 111.633
  CHANNELS 6 Xposition Yposition Zposition Zrotation Xrotation Yrotation
  JOINT LeftUpLeg
  {
    OFFSET 0.103456 1.85784 10.5485
    CHANNELS 6 Xposition Yposition Zposition Zrotation Xrotation Yrotation
    JOINT LeftLeg
    {
      OFFSET 43.5 -4.2e-05 0
      CHANNELS 6 Xposition Yposition Zposition Zrotation Xrotation Yrotation
      JOINT LeftFoot
      {
        OFFSET 42.3722 1.9e-05 0
        CHANNELS 6 Xposition Yposition Zposition Zrotation Xrotation Yrotation
        JOINT LeftToe
        {
          OFFSET 17.3 0 0
          CHANNELS 6 Xposition Yposition Zposition Zrotation Xrotation Yrotation
          End Site
          {
            OFFSET 0 0 0
          }
        }
      }
    }
  }
  JOINT RightUpLeg
  {
    OFFSET 0.103456 1.85782 -10.5485
    CHANNELS 6 Xposition Yposition Zposition Zrotation Xrotation Yrotation
    JOINT RightLeg
    {
      OFFSET 43.5 -2.7e-05 0
      CHANNELS 6 Xposition Yposition Zposition Zrotation Xrotation Yrotation
      JOINT RightFoot
      {
        OFFSET 42.3723 0 0
        CHANNELS 6 Xposition Yposition Zposition Zrotation Xrotation Yrotation
        JOINT RightToe
        {
          OFFSET 17.3 0 1.7e-05
          CHANNELS 6 Xposition Yposition Zposition Zrotation Xrotation Yrotation
          End Site
          {
            OFFSET 0 0 0
          }
        }
      }
    }
  }
  JOINT Spine
  {
    OFFSET 6.90197 -2.60373 0
    CHANNELS 6 Xposition Yposition Zposition Zrotation Xrotation Yrotation
    JOINT Spine1
    {
      OFFSET 12.5881 0 0
      CHANNELS 6 Xposition Yposition Zposition Zrotation Xrotation Yrotation
      JOINT Spine2
      {
        OFFSET 12.3432 -1.8e-05 0
        CHANNELS 6 Xposition Yposition Zposition Zrotation Xrotation Yrotation
        JOINT Neck
        {
          OFFSET 25.8329 2.3e-05 0
          CHANNELS 6 Xposition Yposition Zposition Zrotation Xrotation Yrotation
          JOINT Head
          {
            OFFSET 11.7666 0 0
            CHANNELS 6 Xposition Yposition Zposition Zrotation Xrotation Yrotation
            End Site
            {
              OFFSET 0 0 0
            }
          }
        }
        JOINT LeftShoulder
        {
          OFFSET 19.7459 -1.48035 6.0001
          CHANNELS 6 Xposition Yposition Zposition Zrotation Xrotation Yrotation
          JOINT LeftArm
          {
            OFFSET 11.2841 1.8e-05 -2e-05
            CHANNELS 6 Xposition Yposition Zposition Zrotation Xrotation Yrotation
            JOINT LeftForeArm
            {
              OFFSET 33 -1.3e-05 1.9e-05
              CHANNELS 6 Xposition Yposition Zposition Zrotation Xrotation Yrotation
              JOINT LeftHand
              {
                OFFSET 25.2 3.2e-05 1.1e-05
                CHANNELS 6 Xposition Yposition Zposition Zrotation Xrotation Yrotation
                End Site
                {
                  OFFSET 0 0 0
                }
              }
            }
          }
        }
        JOINT RightShoulder
        {
          OFFSET 19.7461 -1.48036 -6.00008
          CHANNELS 6 Xposition Yposition Zposition Zrotation Xrotation Yrotation
          JOINT RightArm
          {
            OFFSET 11.2841 0 0
            CHANNELS 6 Xposition Yposition Zposition Zrotation Xrotation Yrotation
            JOINT RightForeArm
            {
              OFFSET 33.0001 1.6e-05 0
              CHANNELS 6 Xposition Yposition Zposition Zrotation Xrotation Yrotation
              JOINT RightHand
              {
                OFFSET 25.1998 0.000123 0.000432
                CHANNELS 6 Xposition Yposition Zposition Zrotation Xrotation Yrotation
                End Site
                {
                  OFFSET 0 0 0
                }
              }
            }
          }
        }
      }
    }
  }
}
MOTION
Frames:	4
Frame Time:	0.0333333
-61.265 89.8135 -141.406 -10.2045 -83.9897 -96.9222 0.103456 1.85784 10.5485 6.49496 12.2004 -179.506 43.5 -4.2e-05 1e-05 -14.9202 -7.27528 -3.36327 42.3722 1.9e-05 -7.10543e-15 78.8864 5.06683 -5.03369 17.3 0 3e-06 21.4546 -1e-06 0.003093 0.103456 1.85782 -10.5485 9.72779 -2.13771 173.701 43.5 -2.7e-05 4e-06 -9.18123 11.0544 11.3305 42.3723 1.42109e-14 1e-05 86.3609 7.64226 -11.8413 17.3 -6e-06 1.7e-05 21.4546 -1.9e-05 -0.003116 6.90197 -2.60373 -3e-06 7.60379 1.21565 0.33193 12.5881 1e-05 8e-06 5.15937 2.5409 0.527823 12.3432 -1.8e-05 -5e-06 4.80414 2.64381 0.382023 25.8329 2.3e-05 7e-06 2.80998 0.849673 -3.02102 11.7666 -8e-06 -6e-06 -29.6675 -7.60803 11.7285 19.7459 -1.48035 6.0001 174.401 -9.59379 -103.239 11.2841 1.8e-05 -2e-05 1.6914 -27.2441 33.761 33 -1.3e-05 1.9e-05 -12.4407 10.2098 -17.3753 25.2 3.2e-05 1.1e-05 3.66786 31.6705 1.57905 19.7461 -1.48036 -6.00008 -170.822 -4.68596 79.3764 11.2841 -1.42109e-14 -1e-06 28.3266 5.30382 -5.32033 33.0001 1.6e-05 -1e-06 -38.6999 9.59271 22.7553 25.1998 0.000123 0.000432 23.3815 -10.4795 7.09524 
-61.2721 89.8145 -141.426 -10.2135 -83.9974 -96.9312 0.103456 1.85784 10.5485 6.49465 12.2039 -179.523 43.5 -4.2e-05 1e-05 -14.9726 -7.27528 -3.36327 42.3722 1.9e-05 -1.42109e-14 78.9277 5.10576 -5.03179 17.3 -1.42109e-14 3e-06 21.4546 -1e-06 0.003093 0.103456 1.85782 -10.5485 9.71479 -2.13353 173.68 43.5 -2.7e-05 4e-06 -9.21964 11.0544 11.3305 42.3723 -1.42109e-14 1e-05 86.4073 7.62055 -11.8285 17.3 -6e-06 1.7e-05 21.4546 -1.9e-05 -0.003116 6.90197 -2.60373 -3e-06 7.61265 1.21316 0.33193 12.5881 1e-05 8e-06 5.17749 2.53544 0.518066 12.3432 -1.8e-05 -5e-06 4.82236 2.63802 0.372669 25.8329 2.3e-05 7e-06 2.7918 0.850839 -3.02008 11.7666 -8e-06 -6e-06 -29.7806 -7.62057 11.7289 19.7459 -1.48035 6.0001 174.412 -9.60576 -103.171 11.2841 1.8e-05 -2e-05 1.55965 -27.1525 33.7467 33 -1.3e-05 1.9e-05 -12.3963 10.3253 -17.3533 25.2 3.2e-05 1.1e-05 3.62198 31.6946 1.66317 19.7461 -1.48036 -6.00008 -170.865 -4.67506 79.3874 11.2841 1.42109e-14 -1e-06 28.2481 5.30365 -5.33946 33.0001 1.6e-05 -1e-06 -38.7616 9.58919 22.7683 25.1998 0.000123 0.000432 23.3462 -10.4703 7.10842 
-61.2881 89.8158 -141.457 -10.2224 -84.0051 -96.9402 0.103456 1.85784 10.5485 6.47202 12.2095 -179.54 43.5 -4.2e-05 1e-05 -15.0376 -7.28911 -3.36338 42.3722 1.9e-05 0 78.9806 5.1184 -5.01503 17.3 0 3e-06 21.4546 -1e-06 0.003093 0.103456 1.85782 -10.5485 9.72176 -2.11803 173.669 43.5 -2.7e-05 4e-06 -9.27399 11.0548 11.3212 42.3723 0 1e-05 86.4457 7.55423 -11.827 17.3 -6e-06 1.7e-05 21.4546 -1.9e-05 -0.003116 6.90197 -2.60373 -3e-06 7.62564 1.20438 0.331929 12.5881 1e-05 8e-06 5.20397 2.51766 0.510655 12.3432 -1.8e-05 -5e-06 4.84909 2.62023 0.366398 25.8329 2.3e-05 7e-06 2.77635 0.803741 -3.00487 11.7666 -8e-06 -6e-06 -29.8634 -7.67651 11.6978 19.7459 -1.48035 6.0001 174.42 -9.60776 -103.118 11.2841 1.8e-05 -2e-05 1.5764 -27.0961 33.8239 33 -1.3e-05 1.9e-05 -12.4194 10.2387 -17.3453 25.2 3.2e-05 1.1e-05 3.68207 31.6473 1.66049 19.7461 -1.48036 -6.00008 -170.9 -4.67601 79.3828 11.2841 2.84217e-14 -1e-06 28.1454 5.29915 -5.3525 33.0001 1.6e-05 -1e-06 -38.8023 9.55327 22.7972 25.1998 0.000123 0.000432 23.3439 -10.4793 7.13585 
-61.3041 89.8169 -141.49 -10.2308 -84.0123 -96.9486 0.103456 1.85784 10.5485 6.45043 12.2194 -179.546 43.5 -4.2e-05 1e-05 -15.1182 -7.29485 -3.36342 42.3722 1.9e-05 -1.42109e-14 79.0506 5.13324 -5.00577 17.3 0 3e-06 21.4546 -1e-06 0.003093 0.103456 1.85782 -10.5485 9.72809 -2.08857 173.641 43.5 -2.7e-05 4e-06 -9.31368 11.0528 11.3111 42.3723 0 1e-05 86.4973 7.39485 -11.8121 17.3 -6e-06 1.7e-05 21.4546 -1.9e-05 -0.003116 6.90197 -2.60373 -3e-06 7.63832 1.19068 0.332019 12.5881 1e-05 8e-06 5.22963 2.49072 0.512579 12.3432 -1.8e-05 -5e-06 4.87506 2.59384 0.370011 25.8329 2.3e-05 7e-06 2.76127 0.735113 -2.97765 11.7666 -8e-06 -6e-06 -29.8796 -7.75239 11.6508 19.7459 -1.48035 6.0001 174.413 -9.63984 -103.07 11.2841 1.8e-05 -2e-05 1.59461 -27.1064 33.9619 33 -1.3e-05 1.9e-05 -12.414 10.2857 -17.3732 25.2 3.2e-05 1.1e-05 3.60107 31.6661 1.62314 19.7461 -1.48036 -6.00008 -170.914 -4.71018 79.3366 11.2841 0 -1e-06 28.0119 5.20734 -5.27118 33.0001 1.6e-05 -1e-06 -38.7756 9.52416 22.78 25.1998 0.000123 0.000432 23.2626 -10.4981 7.12031 
